<svg xmlns="http://www.w3.org/2000/svg" version="1.1" xmlns:xlink="http://www.w3.org/1999/xlink" xmlns:svgjs="http://svgjs.dev/svgjs" width="1920" height="720" preserveAspectRatio="none" viewBox="0 0 1920 720"><g mask="url(&quot;#SvgjsMask1023&quot;)" fill="none"><path d="M1339.42-37.53C1132.28-30.19 992.77 284.11 580.94 297.28 169.1 310.45 27.18 600.99-177.55 606.88" stroke="rgba(51, 54, 71, 1)" stroke-width="2"></path><path d="M1202.21-97.32C997.28-87.94 836.74 261.49 464.47 261.95 92.2 262.41-84.63 104.44-273.27 103.55" stroke="rgba(51, 54, 71, 1)" stroke-width="2"></path><path d="M829.38-10.18C680.47 98.66 761.12 649.9 507.58 653.71 254.03 657.52 47.11 312.23-136.03 300.91" stroke="rgba(51, 54, 71, 1)" stroke-width="2"></path><path d="M706.5-17.87C553.47-9.5 469.64 248.82 163.12 265.91-143.41 283-226.77 545.19-380.27 553.91" stroke="rgba(51, 54, 71, 1)" stroke-width="2"></path><path d="M1066.63-103.71C939.34-81.89 971.79 231.53 674 232.03 376.2 232.53 89 74.42-111.27 73.63" stroke="rgba(51, 54, 71, 1)" stroke-width="2"></path></g><defs><mask id="SvgjsMask1023"><rect width="1920" height="720" fill="#ffffff"></rect></mask></defs></svg>